<?xml version="1.0" encoding="utf-8"?><svg xmlns="http://www.w3.org/2000/svg" xmlns:xlink="http://www.w3.org/1999/xlink" width="1536" height="754" preserveAspectRatio="xMidYMid" viewBox="0 0 1536 754" style="z-index:1;margin-right:-2px;display:block;background-repeat-y:initial;background-repeat-x:initial;background-color:rgb(255, 255, 255);animation-play-state:paused" ><g transform="translate(768,377) scale(1,1) translate(-768,-377)" style="transform:matrix(1, 0, 0, 1, 0, 0);animation-play-state:paused" ><path id="path0" d="M 576.531189606466 300.4033018318813
c 0 25.902163690139716 -6.337763456098015 7.439983187593323 -13.777746643691337 7.439983187593323
S 548.9756963190833 326.30546552202105 548.9756963190833 300.4033018318813
s 6.337763456098015 -7.439983187593323 13.777746643691337 -7.439983187593323
S 576.531189606466 274.5011381417416 576.531189606466 300.4033018318813
z" fill="none" stroke="none" style="animation-play-state:paused" ></path>


<circle cx="0" cy="0" r="7.011152088314536" fill="#51cacc" transform="translate(576.3372192382812 293.7727355957031)" style="animation-play-state:paused" ></circle>
<path id="path1" d="M 24.994662975646378 468.3320564051896
c 0 26.51794129047846 -6.4884324434149425 7.616855477052324 -14.105287920467266 7.616855477052324
S -3.2159128652881535 494.84999769566804 -3.2159128652881535 468.3320564051896
s 6.4884324434149425 -7.616855477052324 14.105287920467266 -7.616855477052324
S 24.994662975646378 441.8141151147111 24.994662975646378 468.3320564051896
z" fill="none" stroke="none" style="animation-play-state:paused" ></path>


<circle cx="0" cy="0" r="5.843756237896663" fill="#51cacc" transform="translate(-1.103203535079956 482.212890625)" style="animation-play-state:paused" ></circle>
<path id="path2" d="M 816.435062621686 154.17946640535263
c 0 30.136207446696385 -7.373752885893796 8.656144692136197 -16.029897578029992 8.656144692136197
S 784.3752674656259 184.315673852049 784.3752674656259 154.17946640535263
s 7.373752885893796 -8.656144692136197 16.029897578029992 -8.656144692136197
S 816.435062621686 124.04325895865624 816.435062621686 154.17946640535263
z" fill="none" stroke="none" style="animation-play-state:paused" ></path>


<circle cx="0" cy="0" r="6.051712023984913" fill="#9df871" transform="translate(785.15380859375 166.37705993652344)" style="animation-play-state:paused" ></circle>
<path id="path3" d="M 1277.808561528282 260.48579393968265
c 0 23.85999818778624 -5.838084662968972 6.853403734789664 -12.691488397758636 6.853403734789664
S 1252.425584732765 284.3457921274689 1252.425584732765 260.48579393968265
s 5.838084662968972 -6.853403734789664 12.691488397758636 -6.853403734789664
S 1277.808561528282 236.62579575189642 1277.808561528282 260.48579393968265
z" fill="none" stroke="none" style="animation-play-state:paused" ></path>


<circle cx="0" cy="0" r="5.475462222606831" fill="#9df871" transform="translate(1252.671630859375 267.4320068359375)" style="animation-play-state:paused" ></circle>
<path id="path4" d="M 73.02170372574557 92.01757722577997
c 0 23.10689245920413 -5.653814112358456 6.637086131899058 -12.290900244257514 6.637086131899058
S 48.439903237230546 115.1244696849841 48.439903237230546 92.01757722577997
s 5.653814112358456 -6.637086131899058 12.290900244257514 -6.637086131899058
S 73.02170372574557 68.91068476657584 73.02170372574557 92.01757722577997
z" fill="none" stroke="none" style="animation-play-state:paused" ></path>


<circle cx="0" cy="0" r="4.660461114009192" fill="#51cacc" transform="translate(56.04582214355469 100.83842468261719)" style="animation-play-state:paused" ></circle>
<path id="path5" d="M 1259.3471093543878 525.801587345071
c 0 28.675313569000554 -7.016300128585241 8.236526237904414 -15.252826366489655 8.236526237904414
S 1228.8414566214085 554.4769009140715 1228.8414566214085 525.801587345071
s 7.016300128585241 -8.236526237904414 15.252826366489655 -8.236526237904414
S 1259.3471093543878 497.12627377607043 1259.3471093543878 525.801587345071
z" fill="none" stroke="none" style="animation-play-state:paused" ></path>


<circle cx="0" cy="0" r="4.1160937018172055" fill="#de9dd6" transform="translate(1258.896240234375 535.5984497070312)" style="animation-play-state:paused" ></circle>
<path id="path6" d="M 224.15794817061138 141.802577360267
c 0 19.751195038140512 -4.832739211459912 5.673215596061637 -10.50595480752155 5.673215596061637
S 203.14603855556825 161.55377239840752 203.14603855556825 141.802577360267
s 4.832739211459912 -5.673215596061637 10.50595480752155 -5.673215596061637
S 224.15794817061138 122.0513823221265 224.15794817061138 141.802577360267
z" fill="none" stroke="none" style="animation-play-state:paused" ></path>


<circle cx="0" cy="0" r="6.502450266101312" fill="#51cacc" transform="translate(206.49017333984375 131.6875762939453)" style="animation-play-state:paused" ></circle>
<path id="path7" d="M 929.5255385540719 46.23485209961034
c 0 20.892824398118822 -5.1120740548588595 6.001130412225619 -11.11320446708448 6.001130412225619
S 907.2991296199028 67.12767649772917 907.2991296199028 46.23485209961034
s 5.1120740548588595 -6.001130412225619 11.11320446708448 -6.001130412225619
S 929.5255385540719 25.34202770149152 929.5255385540719 46.23485209961034
z" fill="none" stroke="none" style="animation-play-state:paused" ></path>


<circle cx="0" cy="0" r="5.919841519207536" fill="#de9dd6" transform="translate(918.7374877929688 52.250484466552734)" style="animation-play-state:paused" ></circle>
<path id="path8" d="M 915.150927123356 614.3085565342556
c 0 28.795849176416496 -7.045792883591269 8.2711481676941 -15.316941051285369 8.2711481676941
S 884.5170450207852 643.104405710672 884.5170450207852 614.3085565342556
s 7.045792883591269 -8.2711481676941 15.316941051285369 -8.2711481676941
S 915.150927123356 585.5127073578391 915.150927123356 614.3085565342556
z" fill="none" stroke="none" style="animation-play-state:paused" ></path>


<circle cx="0" cy="0" r="4.997072499709417" fill="#de9dd6" transform="translate(912.3091430664062 629.6317138671875)" style="animation-play-state:paused" ></circle>
<path id="path9" d="M 125.39073491297017 46.360404370442645
c 0 28.314908732288437 -6.928115966411 8.13300569969987 -15.061121666110871 8.13300569969987
S 95.26849158074845 74.67531310273108 95.26849158074845 46.360404370442645
s 6.928115966411 -8.13300569969987 15.061121666110871 -8.13300569969987
S 125.39073491297017 18.045495638154208 125.39073491297017 46.360404370442645
z" fill="none" stroke="none" style="animation-play-state:paused" ></path>


<circle cx="0" cy="0" r="7.081224695201428" fill="#9df871" transform="translate(102.71227264404297 58.76221466064453)" style="animation-play-state:paused" ></circle>
<path id="path10" d="M 1124.9363576838605 210.12455297039136
c 0 36.25004999199465 -8.869693083147627 10.41224840195591 -19.281941485103538 10.41224840195591
S 1086.3724747136534 246.374602962386 1086.3724747136534 210.12455297039136
s 8.869693083147627 -10.41224840195591 19.281941485103538 -10.41224840195591
S 1124.9363576838605 173.87450297839672 1124.9363576838605 210.12455297039136
z" fill="none" stroke="none" style="animation-play-state:paused" ></path>


<circle cx="0" cy="0" r="7.964707014519341" fill="#ff708e" transform="translate(1124.423095703125 198.2081298828125)" style="animation-play-state:paused" ></circle>
<path id="path11" d="M 243.09665850688708 679.1138147415866
c 0 30.332737507656578 -7.421840028469163 8.712594816029018 -16.13443484449818 8.712594816029018
S 210.82778881789073 709.4465522492432 210.82778881789073 679.1138147415866
s 7.421840028469163 -8.712594816029018 16.13443484449818 -8.712594816029018
S 243.09665850688708 648.78107723393 243.09665850688708 679.1138147415866
z" fill="none" stroke="none" style="animation-play-state:paused" ></path>


<circle cx="0" cy="0" r="5.176944008135186" fill="#e0ff77" transform="translate(242.88450622558594 686.65869140625)" style="animation-play-state:paused" ></circle>
<path id="path12" d="M 1061.5439247276938 234.2541564612543
c 0 32.71330580790846 -8.004319506190368 9.396375072484346 -17.400694578674713 9.396375072484346
S 1026.7425355703442 266.96746226916275 1026.7425355703442 234.2541564612543
s 8.004319506190368 -9.396375072484346 17.400694578674713 -9.396375072484346
S 1061.5439247276938 201.54085065334584 1061.5439247276938 234.2541564612543
z" fill="none" stroke="none" style="animation-play-state:paused" ></path>


<circle cx="0" cy="0" r="5.630972171828128" fill="#51cacc" transform="translate(1040.3612060546875 223.7403106689453)" style="animation-play-state:paused" ></circle>
<path id="path13" d="M 771.0937001996863 484.5584686748984
c 0 24.097080629855125 -5.896094196666678 6.921501883043494 -12.817596079710171 6.921501883043494
S 745.458508040266 508.6555493047535 745.458508040266 484.5584686748984
s 5.896094196666678 -6.921501883043494 12.817596079710171 -6.921501883043494
S 771.0937001996863 460.4613880450433 771.0937001996863 484.5584686748984
z" fill="none" stroke="none" style="animation-play-state:paused" ></path>


<circle cx="0" cy="0" r="4.210585462551749" fill="#9df871" transform="translate(770.8282470703125 477.3582458496094)" style="animation-play-state:paused" ></circle>
<path id="path14" d="M 120.16381162701039 382.0103576963106
c 0 19.278411454109076 -4.717058121750093 5.537416055967501 -10.254474177717594 5.537416055967501
S 99.6548632715752 401.2887691504197 99.6548632715752 382.0103576963106
s 4.717058121750093 -5.537416055967501 10.254474177717594 -5.537416055967501
S 120.16381162701039 362.73194624220156 120.16381162701039 382.0103576963106
z" fill="none" stroke="none" style="animation-play-state:paused" ></path>


<circle cx="0" cy="0" r="7.743087722665405" fill="#de9dd6" transform="translate(116.26384735107422 372.587158203125)" style="animation-play-state:paused" ></circle>
<path id="path15" d="M 1279.85292243977 684.0287823243481
c 0 19.854070887189483 -4.857910961759128 5.702765042065064 -10.560676003824192 5.702765042065064
S 1258.7315704321215 703.8828532115375 1258.7315704321215 684.0287823243481
s 4.857910961759128 -5.702765042065064 10.560676003824192 -5.702765042065064
S 1279.85292243977 664.1747114371586 1279.85292243977 684.0287823243481
z" fill="none" stroke="none" style="animation-play-state:paused" ></path>


<circle cx="0" cy="0" r="5.928116212542975" fill="#e0ff77" transform="translate(1258.7677001953125 686.742431640625)" style="animation-play-state:paused" ></circle>
<path id="path16" d="M 884.5307087304386 350.393817773652
c 0 22.599528657553634 -5.529671905571633 6.491353976105832 -12.021025881677465 6.491353976105832
S 860.4886569670837 372.9933464312056 860.4886569670837 350.393817773652
s 5.529671905571633 -6.491353976105832 12.021025881677465 -6.491353976105832
S 884.5307087304386 327.7942891160984 884.5307087304386 350.393817773652
z" fill="none" stroke="none" style="animation-play-state:paused" ></path>


<circle cx="0" cy="0" r="6.501496689006791" fill="#9df871" transform="translate(860.9629516601562 358.9388122558594)" style="animation-play-state:paused" ></circle>
<path id="path17" d="M 354.91417544335604 676.1038455459561
c 0 37.087319587943874 -9.07455692045435 10.652740732707283 -19.72729765316163 10.652740732707283
S 315.45958013703273 713.1911651339 315.45958013703273 676.1038455459561
s 9.07455692045435 -10.652740732707283 19.72729765316163 -10.652740732707283
S 354.91417544335604 639.0165259580123 354.91417544335604 676.1038455459561
z" fill="none" stroke="none" style="animation-play-state:paused" ></path>


<circle cx="0" cy="0" r="7.157818675073771" fill="#ff708e" transform="translate(316.3298645019531 661.5487670898438)" style="animation-play-state:paused" ></circle>
<path id="path18" d="M 44.19034950694386 358.8260724644036
c 0 19.107492975927066 -4.675237643045984 5.488322450532242 -10.163560093578226 5.488322450532242
S 23.863229319787408 377.93356544033065 23.863229319787408 358.8260724644036
s 4.675237643045984 -5.488322450532242 10.163560093578226 -5.488322450532242
S 44.19034950694386 339.7185794884765 44.19034950694386 358.8260724644036
z" fill="none" stroke="none" style="animation-play-state:paused" ></path>


<circle cx="0" cy="0" r="6.455506671885325" fill="#e0ff77" transform="translate(28.54161262512207 350.1585388183594)" style="animation-play-state:paused" ></circle>
<path id="path19" d="M 208.9676896368131 677.8009293786417
c 0 31.722298015502695 -7.761838876133638 9.111723898069924 -16.87356277420356 9.111723898069924
S 175.220564088406 709.5232273941444 175.220564088406 677.8009293786417
s 7.761838876133638 -9.111723898069924 16.87356277420356 -9.111723898069924
S 208.9676896368131 646.078631363139 208.9676896368131 677.8009293786417
z" fill="none" stroke="none" style="animation-play-state:paused" ></path>


<circle cx="0" cy="0" r="5.546401947557787" fill="#9df871" transform="translate(190.0961151123047 668.3489379882812)" style="animation-play-state:paused" ></circle>
<path id="path20" d="M 940.1466523027453 654.2124502191238
c 0 20.09327665880052 -4.916440033536296 5.771473082846958 -10.687913116383253 5.771473082846958
S 918.7708260699789 674.3057268779243 918.7708260699789 654.2124502191238
s 4.916440033536296 -5.771473082846958 10.687913116383253 -5.771473082846958
S 940.1466523027453 634.1191735603232 940.1466523027453 654.2124502191238
z" fill="none" stroke="none" style="animation-play-state:paused" ></path>


<circle cx="0" cy="0" r="4.00220913079961" fill="#de9dd6" transform="translate(918.8225708007812 650.9766235351562)" style="animation-play-state:paused" ></circle>
<path id="path21" d="M 671.5676175385552 205.2513082793285
c 0 30.913172307000714 -7.563861309159749 8.879315449883183 -16.44317675904293 8.879315449883183
S 638.6812640204694 236.1644805863292 638.6812640204694 205.2513082793285
s 7.563861309159749 -8.879315449883183 16.44317675904293 -8.879315449883183
S 671.5676175385552 174.3381359723278 671.5676175385552 205.2513082793285
z" fill="none" stroke="none" style="animation-play-state:paused" ></path>


<circle cx="0" cy="0" r="6.579854705145231" fill="#9df871" transform="translate(638.6947021484375 203.0920867919922)" style="animation-play-state:paused" ></circle>
<path id="path22" d="M 236.79777435660702 521.0540095668212
c 0 23.93364875764883 -5.8561055470842875 6.874558685707643 -12.73066423279193 6.874558685707643
S 211.33644589102317 544.98765832447 211.33644589102317 521.0540095668212
s 5.8561055470842875 -6.874558685707643 12.73066423279193 -6.874558685707643
S 236.79777435660702 497.1203608091723 236.79777435660702 521.0540095668212
z" fill="none" stroke="none" style="animation-play-state:paused" ></path>


<circle cx="0" cy="0" r="7.6054277635251815" fill="#e0ff77" transform="translate(236.77703857421875 518.734619140625)" style="animation-play-state:paused" ></circle>
<path id="path23" d="M 38.51908234969571 509.6188409754583
c 0 22.785751442433348 -5.575237055063479 6.5448434994223454 -12.120080554485824 6.5448434994223454
S 14.278921240724056 532.4045924178916 14.278921240724056 509.6188409754583
s 5.575237055063479 -6.5448434994223454 12.120080554485824 -6.5448434994223454
S 38.51908234969571 486.8330895330249 38.51908234969571 509.6188409754583
z" fill="none" stroke="none" style="animation-play-state:paused" ></path>


<circle cx="0" cy="0" r="5.894834842011245" fill="#de9dd6" transform="translate(38.009132385253906 500.8149719238281)" style="animation-play-state:paused" ></circle>
<path id="path24" d="M 1528.1145932941145 58.41012321635516
c 0 22.70312497124429 -5.555019939772539 6.521110364080807 -12.076130303853345 6.521110364080807
S 1503.962332686408 81.11324818759945 1503.962332686408 58.41012321635516
s 5.555019939772539 -6.521110364080807 12.076130303853345 -6.521110364080807
S 1528.1145932941145 35.70699824511087 1528.1145932941145 58.41012321635516
z" fill="none" stroke="none" style="animation-play-state:paused" ></path>


<circle cx="0" cy="0" r="4.49017551515858" fill="#51cacc" transform="translate(1515.304931640625 64.99746704101562)" style="animation-play-state:paused" ></circle>
<path id="path25" d="M 139.92693393192437 405.1434525632694
c 0 28.42078392895136 -6.954021599637033 8.163416660443476 -15.117438260080508 8.163416660443476
S 109.69205741176334 433.5642364922208 109.69205741176334 405.1434525632694
s 6.954021599637033 -8.163416660443476 15.117438260080508 -8.163416660443476
S 139.92693393192437 376.72266863431804 139.92693393192437 405.1434525632694
z" fill="none" stroke="none" style="animation-play-state:paused" ></path>


<circle cx="0" cy="0" r="7.889041861129854" fill="#e0ff77" transform="translate(113.55480194091797 420.1705627441406)" style="animation-play-state:paused" ></circle>
<path id="path26" d="M 926.1840102509323 52.7465046440092
c 0 29.378374711935646 -7.188325727388508 8.438469332151728 -15.626795059540237 8.438469332151728
S 894.9304201318519 82.12487935594484 894.9304201318519 52.7465046440092
s 7.188325727388508 -8.438469332151728 15.626795059540237 -8.438469332151728
S 926.1840102509323 23.368129932073554 926.1840102509323 52.7465046440092
z" fill="none" stroke="none" style="animation-play-state:paused" ></path>


<circle cx="0" cy="0" r="7.522687388783333" fill="#ff708e" transform="translate(895.037109375 47.22343444824219)" style="animation-play-state:paused" ></circle>
<path id="path27" d="M 354.19221633693513 392.1122430491355
c 0 25.364392368634697 -6.2061811114744465 7.285516956948264 -13.49169806842271 7.285516956948264
S 327.20882020008975 417.4766354177702 327.20882020008975 392.1122430491355
s 6.2061811114744465 -7.285516956948264 13.49169806842271 -7.285516956948264
S 354.19221633693513 366.7478506805008 354.19221633693513 392.1122430491355
z" fill="none" stroke="none" style="animation-play-state:paused" ></path>


<circle cx="0" cy="0" r="6.7240771864416145" fill="#9df871" transform="translate(337.2024230957031 383.62445068359375)" style="animation-play-state:paused" ></circle>
<path id="path28" d="M 103.27195500760817 181.63383667654765
c 0 36.644413089204654 -8.966186181401136 10.525522908601337 -19.491709090002473 10.525522908601337
S 64.28853682760322 218.2782497657523 64.28853682760322 181.63383667654765
s 8.966186181401136 -10.525522908601337 19.491709090002473 -10.525522908601337
S 103.27195500760817 144.989423587343 103.27195500760817 181.63383667654765
z" fill="none" stroke="none" style="animation-play-state:paused" ></path>


<circle cx="0" cy="0" r="4.616640662412893" fill="#de9dd6" transform="translate(102.81600189208984 170.15785217285156)" style="animation-play-state:paused" ></circle>
<path id="path29" d="M 326.1627667187976 334.2270733166007
c 0 28.351507093657737 -6.9370708846183815 8.143517994986798 -15.080588879605179 8.143517994986798
S 296.0015889595873 362.57858041025844 296.0015889595873 334.2270733166007
s 6.9370708846183815 -8.143517994986798 15.080588879605179 -8.143517994986798
S 326.1627667187976 305.87556622294295 326.1627667187976 334.2270733166007
z" fill="none" stroke="none" style="animation-play-state:paused" ></path>


<circle cx="0" cy="0" r="5.021426205270249" fill="#ff708e" transform="translate(296.158447265625 327.8350830078125)" style="animation-play-state:paused" ></circle></g></svg>